Nunito-SemiBold.ufo
<glyph name="quotedbl" format="1">
  <advance width="736"/>
  <unicode hex="0022"/>
  <outline>
    <contour>
      <point x="211" y="968" type="curve" smooth="yes"/>
      <point x="242" y="968"/>
      <point x="273" y="993"/>
      <point x="278" y="1045" type="curve" smooth="yes"/>
      <point x="308" y="1400" type="line"/>
      <point x="309" y="1452"/>
      <point x="261" y="1478"/>
      <point x="212" y="1478" type="curve" smooth="yes"/>
      <point x="163" y="1478"/>
      <point x="113" y="1452"/>
      <point x="114" y="1398" type="curve" smooth="yes"/>
      <point x="114" y="1396"/>
      <point x="120" y="1324"/>
      <point x="144" y="1045" type="curve" smooth="yes"/>
      <point x="148" y="993"/>
      <point x="180" y="968"/>
    </contour>
    <contour>
      <point x="517" y="968" type="curve" smooth="yes"/>
      <point x="548" y="968"/>
      <point x="580" y="993"/>
      <point x="585" y="1045" type="curve" smooth="yes"/>
      <point x="614" y="1400" type="line"/>
      <point x="615" y="1452"/>
      <point x="567" y="1478"/>
      <point x="519" y="1478" type="curve" smooth="yes"/>
      <point x="470" y="1478"/>
      <point x="420" y="1451"/>
      <point x="421" y="1400" type="curve" smooth="yes"/>
      <point x="421" y="1397"/>
      <point x="427" y="1324"/>
      <point x="451" y="1045" type="curve" smooth="yes"/>
      <point x="456" y="993"/>
      <point x="486" y="968"/>
    </contour>
  </outline>
</glyph>
<glyph name="dollar" format="1">
  <advance width="1193"/>
  <unicode hex="0024"/>
  <outline>
    <component base="s" xOffset="78" yOffset="216"/>
    <contour>
      <point x="537" y="0" type="line" smooth="yes"/>
      <point x="537" y="-89"/>
      <point x="667" y="-83"/>
      <point x="667" y="0" type="curve" smooth="yes"/>
      <point x="667" y="258" type="line"/>
      <point x="537" y="258" type="line"/>
    </contour>
    <contour>
      <point x="528" y="1193" type="line"/>
      <point x="657" y="1193" type="line"/>
      <point x="657" y="1438" type="line" smooth="yes"/>
      <point x="657" y="1521"/>
      <point x="528" y="1527"/>
      <point x="528" y="1438" type="curve" smooth="yes"/>
    </contour>
  </outline>
</glyph>
<glyph name="asterisk" format="1">
  <advance width="1046"/>
  <unicode hex="002A"/>
  <outline>
    <contour>
      <point x="422" y="800" type="curve" smooth="yes"/>
      <point x="521" y="981" type="line"/>
      <point x="623" y="800" type="line" smooth="yes"/>
      <point x="638.455" y="771.989"/>
      <point x="660.855" y="760.253"/>
      <point x="682.357" y="760.253" type="curve" smooth="yes"/>
      <point x="715.581" y="760.253"/>
      <point x="746.661" y="788.273"/>
      <point x="746.661" y="827.568" type="curve" smooth="yes"/>
      <point x="746.661" y="841.827"/>
      <point x="742.568" y="857.571"/>
      <point x="733" y="874" type="curve" smooth="yes"/>
      <point x="631" y="1040" type="line"/>
      <point x="849" y="1033" type="line"/>
      <point x="894" y="1033"/>
      <point x="916.5" y="1065.75"/>
      <point x="916.5" y="1098.5" type="curve" smooth="yes"/>
      <point x="916.5" y="1131.25"/>
      <point x="894" y="1164"/>
      <point x="849" y="1164" type="curve"/>
      <point x="632" y="1157" type="line"/>
      <point x="740" y="1331" type="line" smooth="yes"/>
      <point x="747.851" y="1344.14"/>
      <point x="751.274" y="1357.4"/>
      <point x="751.274" y="1369.89" type="curve" smooth="yes"/>
      <point x="751.274" y="1407.37"/>
      <point x="720.48" y="1437.98"/>
      <point x="685.985" y="1437.98" type="curve" smooth="yes"/>
      <point x="664.593" y="1437.98"/>
      <point x="641.777" y="1426.21"/>
      <point x="624" y="1397" type="curve"/>
      <point x="521" y="1211" type="line"/>
      <point x="418" y="1401" type="line" smooth="yes"/>
      <point x="403.323" y="1426.61"/>
      <point x="381.821" y="1437.29"/>
      <point x="360.77" y="1437.29" type="curve" smooth="yes"/>
      <point x="326.251" y="1437.29"/>
      <point x="292.946" y="1408.56"/>
      <point x="292.946" y="1369.75" type="curve" smooth="yes"/>
      <point x="292.946" y="1356.43"/>
      <point x="296.865" y="1341.93"/>
      <point x="306" y="1327" type="curve" smooth="yes"/>
      <point x="411" y="1157" type="line"/>
      <point x="197" y="1164" type="line"/>
      <point x="152.126" y="1164"/>
      <point x="129.874" y="1131.43"/>
      <point x="129.874" y="1098.77" type="curve" smooth="yes"/>
      <point x="129.874" y="1065.93"/>
      <point x="152.376" y="1033"/>
      <point x="197" y="1033" type="curve"/>
      <point x="413" y="1040" type="line"/>
      <point x="306" y="866" type="line" smooth="yes"/>
      <point x="297.397" y="852.407"/>
      <point x="293.679" y="838.844"/>
      <point x="293.679" y="826.167" type="curve" smooth="yes"/>
      <point x="293.679" y="788.754"/>
      <point x="326.06" y="759.052"/>
      <point x="360.845" y="759.052" type="curve" smooth="yes"/>
      <point x="382.78" y="759.052"/>
      <point x="405.67" y="770.863"/>
    </contour>
  </outline>
</glyph>
<glyph name="slash" format="1">
  <advance width="761"/>
  <unicode hex="002F"/>
  <outline>
    <contour>
      <point x="142" y="-150" type="curve" smooth="yes"/>
      <point x="174" y="-150"/>
      <point x="204" y="-133"/>
      <point x="218" y="-93" type="curve" smooth="yes"/>
      <point x="697" y="1336" type="line" smooth="yes"/>
      <point x="700" y="1347"/>
      <point x="702" y="1357"/>
      <point x="702" y="1367" type="curve" smooth="yes"/>
      <point x="702" y="1416"/>
      <point x="660" y="1445"/>
      <point x="619" y="1445" type="curve" smooth="yes"/>
      <point x="586" y="1445"/>
      <point x="553" y="1429"/>
      <point x="539" y="1387" type="curve" smooth="yes"/>
      <point x="64" y="-42" type="line" smooth="yes"/>
      <point x="60" y="-53"/>
      <point x="59" y="-64"/>
      <point x="59" y="-72" type="curve" smooth="yes"/>
      <point x="59" y="-121"/>
      <point x="100" y="-150"/>
    </contour>
  </outline>
</glyph>
<glyph name="one" format="1">
  <advance width="1203"/>
  <unicode hex="0031"/>
  <outline>
    <contour>
      <point x="672" y="0" type="curve" smooth="yes"/>
      <point x="733" y="0"/>
      <point x="795" y="39"/>
      <point x="795" y="117" type="curve" smooth="yes"/>
      <point x="794" y="1314" type="line" smooth="yes"/>
      <point x="794" y="1395"/>
      <point x="737" y="1435"/>
      <point x="677" y="1435" type="curve"/>
      <point x="656" y="1433"/>
      <point x="632" y="1429"/>
      <point x="612" y="1418" type="curve" smooth="yes"/>
      <point x="257" y="1201" type="line" smooth="yes"/>
      <point x="227" y="1183"/>
      <point x="215" y="1157"/>
      <point x="215" y="1131" type="curve" smooth="yes"/>
      <point x="215" y="1086"/>
      <point x="253" y="1043"/>
      <point x="301" y="1043" type="curve" smooth="yes"/>
      <point x="316" y="1043"/>
      <point x="332" y="1047"/>
      <point x="347" y="1056" type="curve" smooth="yes"/>
      <point x="550" y="1186" type="line"/>
      <point x="551" y="117" type="line" smooth="yes"/>
      <point x="551" y="39"/>
      <point x="612" y="0"/>
    </contour>
  </outline>
</glyph>
<glyph name="five" format="1">
  <advance width="1203"/>
  <unicode hex="0035"/>
  <outline>
    <contour>
      <point x="613" y="-22" type="curve" smooth="yes"/>
      <point x="894" y="-22"/>
      <point x="1114" y="161"/>
      <point x="1114" y="450" type="curve" smooth="yes"/>
      <point x="1114" y="723"/>
      <point x="930" y="909"/>
      <point x="668" y="909" type="curve" smooth="yes"/>
      <point x="460" y="909"/>
      <point x="370" y="817"/>
      <point x="370" y="817" type="curve"/>
      <point x="370" y="1248" type="line"/>
      <point x="949" y="1248" type="line" smooth="yes"/>
      <point x="1006" y="1248"/>
      <point x="1033" y="1295"/>
      <point x="1033" y="1340" type="curve" smooth="yes"/>
      <point x="1033" y="1384"/>
      <point x="1006" y="1432"/>
      <point x="949" y="1432" type="curve" smooth="yes"/>
      <point x="296" y="1432" type="line" smooth="yes"/>
      <point x="214" y="1432"/>
      <point x="175" y="1398"/>
      <point x="175" y="1322" type="curve" smooth="yes"/>
      <point x="175" y="694" type="line" smooth="yes"/>
      <point x="175" y="637.42"/>
      <point x="278.514" y="600.526"/>
      <point x="335.237" y="600.526" type="curve" smooth="yes"/>
      <point x="349.693" y="600.526"/>
      <point x="361.11" y="602.923"/>
      <point x="367" y="608" type="curve" smooth="yes"/>
      <point x="427" y="661"/>
      <point x="522" y="718"/>
      <point x="629" y="718" type="curve" smooth="yes"/>
      <point x="777" y="718"/>
      <point x="878" y="620"/>
      <point x="878" y="457" type="curve" smooth="yes"/>
      <point x="878" y="282"/>
      <point x="786" y="176"/>
      <point x="604" y="176" type="curve" smooth="yes"/>
      <point x="476" y="176"/>
      <point x="373" y="222"/>
      <point x="294" y="283" type="curve" smooth="yes"/>
      <point x="281.066" y="292.74"/>
      <point x="267.571" y="296.973"/>
      <point x="254.301" y="296.973" type="curve" smooth="yes"/>
      <point x="203.433" y="296.973"/>
      <point x="155.868" y="234.771"/>
      <point x="155.868" y="182.147" type="curve" smooth="yes"/>
      <point x="155.868" y="162.526"/>
      <point x="162.481" y="144.237"/>
      <point x="178" y="131" type="curve" smooth="yes"/>
      <point x="282" y="44"/>
      <point x="413" y="-22"/>
    </contour>
  </outline>
</glyph>
<glyph name="nine" format="1">
  <advance width="1203"/>
  <unicode hex="0039"/>
  <outline>
    <contour>
      <point x="516" y="-22" type="curve" smooth="yes"/>
      <point x="1017" y="-22"/>
      <point x="1127" y="382"/>
      <point x="1127" y="812" type="curve" smooth="yes"/>
      <point x="1127" y="1167"/>
      <point x="986" y="1472"/>
      <point x="576" y="1472" type="curve" smooth="yes"/>
      <point x="265" y="1472"/>
      <point x="71" y="1275"/>
      <point x="71" y="997" type="curve" smooth="yes"/>
      <point x="71" y="727"/>
      <point x="264" y="543"/>
      <point x="539" y="543" type="curve" smooth="yes"/>
      <point x="540.13" y="542.993"/>
      <point x="541.258" y="542.989"/>
      <point x="542.385" y="542.989" type="curve" smooth="yes"/>
      <point x="700.915" y="542.989"/>
      <point x="835.247" y="612.635"/>
      <point x="870" y="702" type="curve"/>
      <point x="870" y="406"/>
      <point x="821" y="176"/>
      <point x="522" y="176" type="curve" smooth="yes"/>
      <point x="448" y="176"/>
      <point x="360" y="196"/>
      <point x="269" y="235" type="curve" smooth="yes"/>
      <point x="260.699" y="238.413"/>
      <point x="252.569" y="239.979"/>
      <point x="244.719" y="239.979" type="curve" smooth="yes"/>
      <point x="195.751" y="239.979"/>
      <point x="157.74" y="179.004"/>
      <point x="157.74" y="124.875" type="curve" smooth="yes"/>
      <point x="157.74" y="93.6088"/>
      <point x="170.422" y="64.627"/>
      <point x="201" y="51" type="curve" smooth="yes"/>
      <point x="296" y="6"/>
      <point x="407" y="-22"/>
    </contour>
    <contour>
      <point x="570.409" y="715.941" type="curve" smooth="yes"/>
      <point x="388.122" y="715.941"/>
      <point x="309" y="836.779"/>
      <point x="309" y="1003" type="curve" smooth="yes"/>
      <point x="309" y="1182"/>
      <point x="408" y="1279"/>
      <point x="587" y="1279" type="curve" smooth="yes"/>
      <point x="754" y="1279"/>
      <point x="857" y="1170"/>
      <point x="857" y="1008" type="curve" smooth="yes"/>
      <point x="857" y="827.393"/>
      <point x="755.702" y="715.941"/>
    </contour>
  </outline>
</glyph>
<glyph name="less" format="1">
  <advance width="1319"/>
  <unicode hex="003C"/>
  <outline>
    <contour>
      <point x="1049" y="29" type="line" smooth="yes"/>
      <point x="1116" y="0"/>
      <point x="1175" y="149"/>
      <point x="1106" y="178" type="curve" smooth="yes"/>
      <point x="367" y="499" type="line"/>
      <point x="1103" y="805" type="line" smooth="yes"/>
      <point x="1194" y="843"/>
      <point x="1112" y="983"/>
      <point x="1046" y="955" type="curve" smooth="yes"/>
      <point x="207" y="602" type="line" smooth="yes"/>
      <point x="100" y="557"/>
      <point x="115" y="437"/>
      <point x="196" y="402" type="curve" smooth="yes"/>
    </contour>
  </outline>
</glyph>
<glyph name="question" format="1">
  <advance width="1045"/>
  <unicode hex="003F"/>
  <outline>
    <contour>
      <point x="319" y="461" type="line"/>
      <point x="322" y="337"/>
      <point x="529" y="341"/>
      <point x="527" y="459" type="curve" smooth="yes"/>
      <point x="526" y="541" type="line" smooth="yes"/>
      <point x="525" y="697"/>
      <point x="921" y="774"/>
      <point x="921" y="1086" type="curve" smooth="yes"/>
      <point x="921" y="1351"/>
      <point x="724" y="1457"/>
      <point x="489" y="1457" type="curve" smooth="yes"/>
      <point x="393" y="1457"/>
      <point x="288" y="1443"/>
      <point x="191" y="1416" type="curve" smooth="yes"/>
      <point x="137" y="1401"/>
      <point x="113" y="1361"/>
      <point x="113" y="1323" type="curve" smooth="yes"/>
      <point x="113" y="1270"/>
      <point x="147" y="1228"/>
      <point x="199" y="1228" type="curve" smooth="yes"/>
      <point x="244" y="1228"/>
      <point x="367" y="1257"/>
      <point x="434" y="1257" type="curve" smooth="yes"/>
      <point x="551" y="1257"/>
      <point x="665" y="1222"/>
      <point x="665" y="1068" type="curve" smooth="yes"/>
      <point x="665" y="843"/>
      <point x="318" y="767"/>
      <point x="318" y="561" type="curve" smooth="yes"/>
    </contour>
    <contour>
      <point x="426" y="-30" type="curve" smooth="yes"/>
      <point x="506" y="-30"/>
      <point x="558" y="29"/>
      <point x="558" y="96" type="curve" smooth="yes"/>
      <point x="558" y="163"/>
      <point x="503" y="218"/>
      <point x="426" y="218" type="curve" smooth="yes"/>
      <point x="344" y="218"/>
      <point x="294" y="159"/>
      <point x="294" y="96" type="curve" smooth="yes"/>
      <point x="294" y="29"/>
      <point x="346" y="-30"/>
    </contour>
  </outline>
</glyph>
<glyph name="A" format="1">
  <advance width="1453"/>
  <unicode hex="0041"/>
  <outline>
    <contour>
      <point x="1266" y="19" type="move" name="ogonek"/>
    </contour>
    <contour>
      <point x="726" y="1438" type="move" name="top"/>
    </contour>
    <contour>
      <point x="991.459" y="517" type="line"/>
      <point x="465.148" y="517" type="line"/>
      <point x="728" y="1206" type="line"/>
    </contour>
    <contour>
      <point x="1162" y="71" type="line" smooth="yes"/>
      <point x="1183.12" y="15.1944"/>
      <point x="1228.26" y="-7.91028"/>
      <point x="1273.41" y="-7.91028" type="curve" smooth="yes"/>
      <point x="1335.35" y="-7.91028"/>
      <point x="1397.3" y="35.5562"/>
      <point x="1397.3" y="97.7273" type="curve" smooth="yes"/>
      <point x="1397.3" y="110.44"/>
      <point x="1394.71" y="123.935"/>
      <point x="1389" y="138" type="curve" smooth="yes"/>
      <point x="926" y="1297" type="line" smooth="yes"/>
      <point x="872" y="1430"/>
      <point x="806" y="1448"/>
      <point x="728" y="1448" type="curve" smooth="yes"/>
      <point x="651" y="1448"/>
      <point x="584" y="1430"/>
      <point x="531" y="1297" type="curve" smooth="yes"/>
      <point x="68" y="138" type="line" smooth="yes"/>
      <point x="62.2893" y="123.935"/>
      <point x="59.6989" y="110.44"/>
      <point x="59.6989" y="97.7273" type="curve" smooth="yes"/>
      <point x="59.6989" y="35.5562"/>
      <point x="121.653" y="-7.91028"/>
      <point x="183.586" y="-7.91028" type="curve" smooth="yes"/>
      <point x="228.741" y="-7.91028"/>
      <point x="273.884" y="15.1944"/>
      <point x="295" y="71" type="curve" smooth="yes"/>
      <point x="398.004" y="341" type="line"/>
      <point x="1058.76" y="341" type="line"/>
    </contour>
  </outline>
</glyph>
<glyph name="F" format="1">
  <advance width="1168"/>
  <unicode hex="0046"/>
  <outline>
    <contour>
      <point x="295" y="0" type="curve" smooth="yes"/>
      <point x="358" y="0"/>
      <point x="421" y="40"/>
      <point x="421" y="120" type="curve" smooth="yes"/>
      <point x="421" y="644" type="line"/>
      <point x="959" y="644" type="line" smooth="yes"/>
      <point x="1022" y="644"/>
      <point x="1053" y="692"/>
      <point x="1053" y="740" type="curve" smooth="yes"/>
      <point x="1053" y="787"/>
      <point x="1022" y="836"/>
      <point x="959" y="836" type="curve" smooth="yes"/>
      <point x="421" y="836" type="line"/>
      <point x="421" y="1238" type="line"/>
      <point x="986" y="1238" type="line" smooth="yes"/>
      <point x="1050" y="1238"/>
      <point x="1080" y="1290"/>
      <point x="1080" y="1337" type="curve" smooth="yes"/>
      <point x="1080" y="1384"/>
      <point x="1050" y="1436"/>
      <point x="986" y="1436" type="curve" smooth="yes"/>
      <point x="293" y="1436" type="line" smooth="yes"/>
      <point x="229" y="1436"/>
      <point x="172" y="1384"/>
      <point x="172" y="1313" type="curve" smooth="yes"/>
      <point x="172" y="120" type="line" smooth="yes"/>
      <point x="172" y="40"/>
      <point x="232" y="0"/>
    </contour>
  </outline>
</glyph>
<glyph name="M" format="1">
  <advance width="1919"/>
  <unicode hex="004D"/>
  <outline>
    <contour>
      <point x="976" y="1438" type="move" name="top"/>
    </contour>
    <contour>
      <point x="952" y="45" type="curve"/>
      <point x="952" y="346" type="line"/>
      <point x="564" y="1253" type="line" smooth="yes"/>
      <point x="522.73" y="1350.34"/>
      <point x="440.207" y="1391.34"/>
      <point x="361.748" y="1391.34" type="curve" smooth="yes"/>
      <point x="265.304" y="1391.34"/>
      <point x="175" y="1329.39"/>
      <point x="175" y="1234" type="curve" smooth="yes"/>
      <point x="175" y="107" type="line" smooth="yes"/>
      <point x="175" y="51.5"/>
      <point x="232.25" y="23.75"/>
      <point x="289.5" y="23.75" type="curve" smooth="yes"/>
      <point x="346.75" y="23.75"/>
      <point x="404" y="51.5"/>
      <point x="404" y="107" type="curve" smooth="yes"/>
      <point x="404" y="1112" type="line"/>
      <point x="809" y="153" type="line" smooth="yes"/>
      <point x="839" y="82"/>
      <point x="897" y="45"/>
    </contour>
    <contour>
      <point x="953" y="45" type="line"/>
      <point x="1008" y="45"/>
      <point x="1067" y="82"/>
      <point x="1096" y="153" type="curve" smooth="yes"/>
      <point x="1502" y="1112" type="line"/>
      <point x="1502" y="107" type="line" smooth="yes"/>
      <point x="1502" y="51.5"/>
      <point x="1559.25" y="23.75"/>
      <point x="1616.5" y="23.75" type="curve" smooth="yes"/>
      <point x="1673.75" y="23.75"/>
      <point x="1731" y="51.5"/>
      <point x="1731" y="107" type="curve" smooth="yes"/>
      <point x="1731" y="1234" type="line" smooth="yes"/>
      <point x="1731" y="1329.39"/>
      <point x="1640.7" y="1391.34"/>
      <point x="1544.08" y="1391.34" type="curve" smooth="yes"/>
      <point x="1465.49" y="1391.34"/>
      <point x="1382.72" y="1350.34"/>
      <point x="1341" y="1253" type="curve" smooth="yes"/>
      <point x="953" y="346" type="line"/>
    </contour>
  </outline>
</glyph>
<glyph name="O" format="1">
  <advance width="1603"/>
  <unicode hex="004F"/>
  <outline>
    <contour>
      <point x="804" y="1438" type="move" name="top"/>
    </contour>
    <contour>
      <point x="801" y="176" type="curve" smooth="yes"/>
      <point x="514" y="176"/>
      <point x="372" y="396"/>
      <point x="372" y="725" type="curve" smooth="yes"/>
      <point x="372" y="1052"/>
      <point x="513" y="1274"/>
      <point x="801" y="1274" type="curve" smooth="yes"/>
      <point x="1090" y="1274"/>
      <point x="1231" y="1052"/>
      <point x="1231" y="725" type="curve" smooth="yes"/>
      <point x="1231" y="396"/>
      <point x="1088" y="176"/>
    </contour>
    <contour>
      <point x="801" y="-22" type="curve" smooth="yes"/>
      <point x="1244" y="-22"/>
      <point x="1493" y="278"/>
      <point x="1493" y="725" type="curve" smooth="yes"/>
      <point x="1493" y="1173"/>
      <point x="1244" y="1472"/>
      <point x="801" y="1472" type="curve" smooth="yes"/>
      <point x="361" y="1472"/>
      <point x="109" y="1173"/>
      <point x="109" y="725" type="curve" smooth="yes"/>
      <point x="109" y="278"/>
      <point x="361" y="-22"/>
    </contour>
  </outline>
</glyph>
<glyph name="W" format="1">
  <advance width="2081"/>
  <unicode hex="0057"/>
  <outline>
    <contour>
      <point x="1038" y="1438" type="move" name="top"/>
    </contour>
    <contour>
      <point x="358" y="135" type="line" smooth="yes"/>
      <point x="407" y="-47"/>
      <point x="670" y="-42"/>
      <point x="723" y="131" type="curve" smooth="yes"/>
      <point x="1037" y="1154" type="line"/>
      <point x="1037" y="1436" type="line"/>
      <point x="965" y="1436"/>
      <point x="908" y="1414"/>
      <point x="879" y="1318" type="curve" smooth="yes"/>
      <point x="553" y="244" type="line"/>
      <point x="276" y="1353" type="line" smooth="yes"/>
      <point x="242" y="1490"/>
      <point x="5" y="1444"/>
      <point x="46" y="1294" type="curve" smooth="yes"/>
    </contour>
    <contour>
      <point x="1717" y="135" type="curve" smooth="yes"/>
      <point x="2029" y="1294" type="line" smooth="yes"/>
      <point x="2069" y="1444"/>
      <point x="1833" y="1490"/>
      <point x="1799" y="1353" type="curve" smooth="yes"/>
      <point x="1521" y="244" type="line"/>
      <point x="1196" y="1318" type="line" smooth="yes"/>
      <point x="1166" y="1416"/>
      <point x="1110" y="1436"/>
      <point x="1037" y="1436" type="curve"/>
      <point x="1037" y="1154" type="line"/>
      <point x="1352" y="131" type="line" smooth="yes"/>
      <point x="1405" y="-44"/>
      <point x="1668" y="-45"/>
    </contour>
  </outline>
</glyph>
<glyph name="X" format="1">
  <advance width="1312"/>
  <unicode hex="0058"/>
  <outline>
    <contour>
      <point x="1030" y="38" type="line" smooth="yes"/>
      <point x="1054.82" y="4.62"/>
      <point x="1088.92" y="-9.38784"/>
      <point x="1122.78" y="-9.38784" type="curve" smooth="yes"/>
      <point x="1185.77" y="-9.38784"/>
      <point x="1247.93" y="39.1013"/>
      <point x="1247.93" y="101.532" type="curve" smooth="yes"/>
      <point x="1247.93" y="123.16"/>
      <point x="1240.47" y="146.462"/>
      <point x="1223" y="170" type="curve" smooth="yes"/>
      <point x="809.762" y="723.404" type="line"/>
      <point x="1237" y="1285" type="line" smooth="yes"/>
      <point x="1253.78" y="1306.91"/>
      <point x="1261.01" y="1329.37"/>
      <point x="1261.01" y="1350.27" type="curve" smooth="yes"/>
      <point x="1261.01" y="1402.54"/>
      <point x="1215.8" y="1445.08"/>
      <point x="1161.57" y="1445.08" type="curve" smooth="yes"/>
      <point x="1127.62" y="1445.08"/>
      <point x="1090.14" y="1428.41"/>
      <point x="1058" y="1387" type="curve" smooth="yes"/>
      <point x="680.309" y="896.765" type="line"/>
      <point x="312" y="1390" type="line" smooth="yes"/>
      <point x="284.39" y="1426.81"/>
      <point x="250.326" y="1441.77"/>
      <point x="217.375" y="1441.77" type="curve" smooth="yes"/>
      <point x="153.31" y="1441.77"/>
      <point x="93.4591" y="1385.23"/>
      <point x="93.4591" y="1322.84" type="curve" smooth="yes"/>
      <point x="93.4591" y="1302.25"/>
      <point x="99.9734" y="1281.04"/>
      <point x="115" y="1261" type="curve" smooth="yes"/>
      <point x="521.613" y="717.517" type="line"/>
      <point x="89" y="165" type="line" smooth="yes"/>
      <point x="69.3715" y="140.11"/>
      <point x="61.0446" y="115.302"/>
      <point x="61.0446" y="92.5983" type="curve" smooth="yes"/>
      <point x="61.0446" y="36.5554"/>
      <point x="111.78" y="-6.66978"/>
      <point x="168.513" y="-6.66978" type="curve" smooth="yes"/>
      <point x="202.377" y="-6.66978"/>
      <point x="238.378" y="8.73118"/>
      <point x="267" y="46" type="curve" smooth="yes"/>
      <point x="649.786" y="546.199" type="line"/>
    </contour>
  </outline>
</glyph>
<glyph name="grave" format="1">
  <advance width="569"/>
  <unicode hex="0060"/>
  <outline>
    <contour>
      <point x="446" y="1040" type="move" name="_top"/>
    </contour>
    <contour>
      <point x="455" y="1195" type="curve" smooth="yes"/>
      <point x="483" y="1195"/>
      <point x="503" y="1219"/>
      <point x="503" y="1246" type="curve" smooth="yes"/>
      <point x="503" y="1259"/>
      <point x="497" y="1272"/>
      <point x="487" y="1286" type="curve"/>
      <point x="249" y="1578" type="line" smooth="yes"/>
      <point x="225" y="1608"/>
      <point x="201" y="1626"/>
      <point x="173" y="1626" type="curve" smooth="yes"/>
      <point x="119" y="1626"/>
      <point x="62" y="1574"/>
      <point x="62" y="1522" type="curve" smooth="yes"/>
      <point x="62" y="1502"/>
      <point x="71" y="1483"/>
      <point x="90" y="1468" type="curve" smooth="yes"/>
      <point x="401" y="1219" type="line"/>
      <point x="417" y="1204"/>
      <point x="439" y="1195"/>
    </contour>
  </outline>
</glyph>
<glyph name="k" format="1">
  <advance width="1028"/>
  <unicode hex="006B"/>
  <outline>
    <contour>
      <point x="553" y="0" type="move" name="bot"/>
    </contour>
    <contour>
      <point x="250" y="0" type="curve" smooth="yes"/>
      <point x="305" y="0"/>
      <point x="361" y="38"/>
      <point x="361" y="110" type="curve" smooth="yes"/>
      <point x="361" y="510" type="line"/>
      <point x="819" y="28" type="line" smooth="yes"/>
      <point x="840.882" y="4.8885"/>
      <point x="866.27" y="-4.74252"/>
      <point x="890.81" y="-4.74252" type="curve" smooth="yes"/>
      <point x="944.477" y="-4.74252"/>
      <point x="994.084" y="41.3196"/>
      <point x="994.084" y="93.1807" type="curve" smooth="yes"/>
      <point x="994.084" y="114.056"/>
      <point x="986.047" y="135.871"/>
      <point x="967" y="156" type="curve" smooth="yes"/>
      <point x="596" y="544" type="line"/>
      <point x="925" y="853" type="line" smooth="yes"/>
      <point x="943.201" y="870.291"/>
      <point x="950.895" y="890.947"/>
      <point x="950.895" y="911.552" type="curve" smooth="yes"/>
      <point x="950.895" y="961.858"/>
      <point x="905.038" y="1011.86"/>
      <point x="854.285" y="1011.86" type="curve" smooth="yes"/>
      <point x="834.457" y="1011.86"/>
      <point x="813.881" y="1004.23"/>
      <point x="795" y="986" type="curve" smooth="yes"/>
      <point x="361" y="570" type="line"/>
      <point x="361" y="1326" type="line" smooth="yes"/>
      <point x="361" y="1397"/>
      <point x="307" y="1435"/>
      <point x="253" y="1435" type="curve" smooth="yes"/>
      <point x="197" y="1435"/>
      <point x="142" y="1397"/>
      <point x="142" y="1326" type="curve" smooth="yes"/>
      <point x="142" y="110" type="line" smooth="yes"/>
      <point x="142" y="37"/>
      <point x="195" y="0"/>
    </contour>
  </outline>
</glyph>
<glyph name="q" format="1">
  <advance width="1207"/>
  <unicode hex="0071"/>
  <outline>
    <contour>
      <point x="957" y="-381" type="curve" smooth="yes"/>
      <point x="1012" y="-381"/>
      <point x="1066" y="-347"/>
      <point x="1066" y="-279" type="curve" smooth="yes"/>
      <point x="1066" y="893" type="line" smooth="yes"/>
      <point x="1066" y="962"/>
      <point x="1010" y="999"/>
      <point x="955" y="999" type="curve" smooth="yes"/>
      <point x="891" y="999"/>
      <point x="847" y="967"/>
      <point x="847" y="894" type="curve" smooth="yes"/>
      <point x="847" y="838" type="line"/>
      <point x="779" y="960"/>
      <point x="662" y="1013"/>
      <point x="513" y="1013" type="curve" smooth="yes"/>
      <point x="231" y="1013"/>
      <point x="81" y="768"/>
      <point x="81" y="493" type="curve" smooth="yes"/>
      <point x="81" y="194"/>
      <point x="250" y="-14"/>
      <point x="528" y="-14" type="curve" smooth="yes"/>
      <point x="674" y="-14"/>
      <point x="781" y="41"/>
      <point x="847" y="152" type="curve"/>
      <point x="847" y="-279" type="line" smooth="yes"/>
      <point x="847" y="-347"/>
      <point x="901" y="-381"/>
    </contour>
    <contour>
      <point x="567" y="135" type="curve" smooth="yes"/>
      <point x="364" y="135"/>
      <point x="300" y="327"/>
      <point x="300" y="494" type="curve" smooth="yes"/>
      <point x="300" y="651"/>
      <point x="358" y="864"/>
      <point x="563" y="865" type="curve" smooth="yes"/>
      <point x="779" y="865"/>
      <point x="846" y="721"/>
      <point x="846" y="496" type="curve" smooth="yes"/>
      <point x="846" y="314"/>
      <point x="771" y="135"/>
    </contour>
  </outline>
</glyph>
<glyph name="v" format="1">
  <advance width="1061"/>
  <unicode hex="0076"/>
  <outline>
    <contour>
      <point x="534" y="-2" type="curve"/>
      <point x="534" y="217" type="line"/>
      <point x="252" y="932" type="line" smooth="yes"/>
      <point x="201" y="1065"/>
      <point x="14" y="980"/>
      <point x="61" y="864" type="curve" smooth="yes"/>
      <point x="348" y="159" type="line" smooth="yes"/>
      <point x="392" y="48"/>
      <point x="439" y="-2"/>
    </contour>
    <contour>
      <point x="534" y="-2" type="line"/>
      <point x="629" y="-2"/>
      <point x="676" y="48"/>
      <point x="720" y="159" type="curve" smooth="yes"/>
      <point x="1007" y="864" type="line" smooth="yes"/>
      <point x="1054" y="980"/>
      <point x="867" y="1065"/>
      <point x="816" y="932" type="curve" smooth="yes"/>
      <point x="534" y="217" type="line"/>
    </contour>
  </outline>
</glyph>
<glyph name="x" format="1">
  <advance width="1056"/>
  <unicode hex="0078"/>
  <outline>
    <contour>
      <point x="180" y="0" type="curve" smooth="yes"/>
      <point x="207" y="0"/>
      <point x="232" y="13"/>
      <point x="254" y="41" type="curve" smooth="yes"/>
      <point x="527" y="381" type="line"/>
      <point x="641" y="493" type="line"/>
      <point x="935" y="853" type="line" smooth="yes"/>
      <point x="949" y="871"/>
      <point x="955" y="888"/>
      <point x="955" y="906" type="curve" smooth="yes"/>
      <point x="955" y="956"/>
      <point x="910" y="999"/>
      <point x="858" y="999" type="curve" smooth="yes"/>
      <point x="830" y="999"/>
      <point x="806" y="987"/>
      <point x="782" y="958" type="curve" smooth="yes"/>
      <point x="519" y="636" type="line"/>
      <point x="407" y="524" type="line"/>
      <point x="98" y="147" type="line" smooth="yes"/>
      <point x="85" y="131"/>
      <point x="79" y="114"/>
      <point x="79" y="96" type="curve" smooth="yes"/>
      <point x="79" y="46"/>
      <point x="127" y="0"/>
    </contour>
    <contour>
      <point x="866" y="0" type="curve" smooth="yes"/>
      <point x="923" y="0"/>
      <point x="977" y="47"/>
      <point x="977" y="100" type="curve" smooth="yes"/>
      <point x="977" y="120"/>
      <point x="970" y="140"/>
      <point x="956" y="158" type="curve" smooth="yes"/>
      <point x="300" y="955" type="line" smooth="yes"/>
      <point x="275" y="986"/>
      <point x="245" y="999"/>
      <point x="216" y="999" type="curve" smooth="yes"/>
      <point x="159" y="999"/>
      <point x="105" y="953"/>
      <point x="105" y="897" type="curve" smooth="yes"/>
      <point x="105" y="877"/>
      <point x="112" y="858"/>
      <point x="126" y="839" type="curve" smooth="yes"/>
      <point x="782" y="44" type="line" smooth="yes"/>
      <point x="806" y="13"/>
      <point x="836" y="0"/>
    </contour>
  </outline>
</glyph>
<glyph name="y" format="1">
  <advance width="1066"/>
  <unicode hex="0079"/>
  <outline>
    <contour>
      <point x="573" y="1024" type="move" name="top"/>
    </contour>
    <contour>
      <point x="431" y="-355" type="curve" smooth="yes"/>
      <point x="1028" y="858" type="line" smooth="yes"/>
      <point x="1035.57" y="873.536"/>
      <point x="1038.94" y="888.702"/>
      <point x="1038.94" y="903.008" type="curve" smooth="yes"/>
      <point x="1038.94" y="959.21"/>
      <point x="986.895" y="1002.15"/>
      <point x="932.771" y="1002.15" type="curve" smooth="yes"/>
      <point x="896.918" y="1002.15"/>
      <point x="860.152" y="983.305"/>
      <point x="837" y="937" type="curve" smooth="yes"/>
      <point x="551.611" y="356.099" type="line"/>
      <point x="273" y="925" type="line" smooth="yes"/>
      <point x="250.332" y="970.679"/>
      <point x="213.274" y="989.345"/>
      <point x="176.896" y="989.345" type="curve" smooth="yes"/>
      <point x="121.992" y="989.345"/>
      <point x="68.6373" y="946.827"/>
      <point x="68.6373" y="890.48" type="curve" smooth="yes"/>
      <point x="68.6373" y="875.455"/>
      <point x="72.4308" y="859.447"/>
      <point x="81" y="843" type="curve" smooth="yes"/>
      <point x="442.719" y="134.451" type="line"/>
      <point x="245" y="-268" type="line" smooth="yes"/>
      <point x="237.597" y="-283.071"/>
      <point x="234.301" y="-297.88"/>
      <point x="234.301" y="-311.941" type="curve" smooth="yes"/>
      <point x="234.301" y="-369.017"/>
      <point x="288.608" y="-413.78"/>
      <point x="342.986" y="-413.78" type="curve" smooth="yes"/>
      <point x="376.547" y="-413.78"/>
      <point x="410.135" y="-396.729"/>
    </contour>
  </outline>
</glyph>
<glyph name="braceleft" format="1">
  <advance width="682"/>
  <unicode hex="007B"/>
  <outline>
    <contour>
      <point x="451" y="-223" type="curve" smooth="yes"/>
      <point x="582" y="-223" type="line" smooth="yes"/>
      <point x="636" y="-223"/>
      <point x="658" y="-188"/>
      <point x="661" y="-145" type="curve" smooth="yes"/>
      <point x="661" y="-93"/>
      <point x="634" y="-58"/>
      <point x="584" y="-58" type="curve" smooth="yes"/>
      <point x="536" y="-58" type="line" smooth="yes"/>
      <point x="461" y="-58"/>
      <point x="447" y="6"/>
      <point x="447" y="114" type="curve" smooth="yes"/>
      <point x="447" y="363" type="line" smooth="yes"/>
      <point x="447" y="545"/>
      <point x="324" y="613"/>
      <point x="288" y="626" type="curve"/>
      <point x="328" y="640"/>
      <point x="447" y="687"/>
      <point x="447" y="900" type="curve" smooth="yes"/>
      <point x="447" y="1137" type="line" smooth="yes"/>
      <point x="447" y="1251"/>
      <point x="463" y="1313"/>
      <point x="534" y="1313" type="curve" smooth="yes"/>
      <point x="578" y="1313" type="line" smooth="yes"/>
      <point x="631" y="1313"/>
      <point x="660" y="1348"/>
      <point x="660" y="1396" type="curve" smooth="yes"/>
      <point x="660" y="1453"/>
      <point x="624" y="1479"/>
      <point x="578" y="1479" type="curve" smooth="yes"/>
      <point x="451" y="1479" type="line" smooth="yes"/>
      <point x="322" y="1479"/>
      <point x="233" y="1369"/>
      <point x="233" y="1242" type="curve" smooth="yes"/>
      <point x="233" y="937" type="line" smooth="yes"/>
      <point x="233" y="797"/>
      <point x="207" y="724"/>
      <point x="97" y="713" type="curve"/>
      <point x="38" y="710"/>
      <point x="10" y="672"/>
      <point x="10" y="625" type="curve" smooth="yes"/>
      <point x="10" y="572"/>
      <point x="46" y="540"/>
      <point x="97" y="538" type="curve"/>
      <point x="211" y="527"/>
      <point x="233" y="450"/>
      <point x="233" y="316" type="curve" smooth="yes"/>
      <point x="233" y="10" type="line" smooth="yes"/>
      <point x="233" y="-135"/>
      <point x="342" y="-223"/>
    </contour>
  </outline>
</glyph>
<glyph name="asciitilde" format="1">
  <advance width="1320"/>
  <unicode hex="007E"/>
  <outline>
    <contour>
      <point x="776" y="1162" type="curve" smooth="yes"/>
      <point x="876" y="1162"/>
      <point x="931" y="1217"/>
      <point x="955" y="1311" type="curve" smooth="yes"/>
      <point x="955.822" y="1315.66"/>
      <point x="956.212" y="1320.19"/>
      <point x="956.212" y="1324.56" type="curve" smooth="yes"/>
      <point x="956.212" y="1360.07"/>
      <point x="930.504" y="1385.38"/>
      <point x="901.059" y="1385.38" type="curve" smooth="yes"/>
      <point x="881.15" y="1385.38"/>
      <point x="859.534" y="1373.81"/>
      <point x="843" y="1346" type="curve" smooth="yes"/>
      <point x="827" y="1319"/>
      <point x="808" y="1303"/>
      <point x="781" y="1303" type="curve" smooth="yes"/>
      <point x="717" y="1303"/>
      <point x="624" y="1384"/>
      <point x="516" y="1384" type="curve" smooth="yes"/>
      <point x="422" y="1384"/>
      <point x="365" y="1334"/>
      <point x="336" y="1240" type="curve" smooth="yes"/>
      <point x="333.72" y="1232.54"/>
      <point x="332.675" y="1225.59"/>
      <point x="332.675" y="1219.19" type="curve" smooth="yes"/>
      <point x="332.675" y="1186.69"/>
      <point x="359.634" y="1168.32"/>
      <point x="388.605" y="1168.32" type="curve" smooth="yes"/>
      <point x="408.962" y="1168.32"/>
      <point x="430.313" y="1177.39"/>
      <point x="444" y="1197" type="curve" smooth="yes"/>
      <point x="466" y="1229"/>
      <point x="489" y="1245"/>
      <point x="520" y="1245" type="curve" smooth="yes"/>
      <point x="588" y="1245"/>
      <point x="682" y="1162"/>
    </contour>
  </outline>
</glyph>
<glyph name="cent" format="1">
  <advance width="1043"/>
  <unicode hex="00A2"/>
  <outline>
    <component base="c"/>
    <contour>
      <point x="570" y="-266" type="curve" smooth="yes"/>
      <point x="602" y="-266"/>
      <point x="633" y="-245"/>
      <point x="633" y="-202" type="curve" smooth="yes"/>
      <point x="633" y="66" type="line"/>
      <point x="505" y="66" type="line"/>
      <point x="505" y="-202" type="line" smooth="yes"/>
      <point x="505" y="-244"/>
      <point x="537" y="-266"/>
    </contour>
    <contour>
      <point x="505" y="950" type="line"/>
      <point x="633" y="950" type="line"/>
      <point x="633" y="1219" type="line" smooth="yes"/>
      <point x="633" y="1262"/>
      <point x="602" y="1282"/>
      <point x="570" y="1282" type="curve" smooth="yes"/>
      <point x="537" y="1282"/>
      <point x="505" y="1261"/>
      <point x="505" y="1219" type="curve" smooth="yes"/>
    </contour>
  </outline>
</glyph>
<glyph name="periodcentered" format="1">
  <advance width="609"/>
  <unicode hex="00B7"/>
  <outline>
    <contour>
      <point x="300" y="393" type="curve" smooth="yes"/>
      <point x="381" y="393"/>
      <point x="433" y="452"/>
      <point x="433" y="519" type="curve" smooth="yes"/>
      <point x="433" y="584"/>
      <point x="381" y="644"/>
      <point x="300" y="644" type="curve" smooth="yes"/>
      <point x="219" y="644"/>
      <point x="167" y="584"/>
      <point x="167" y="519" type="curve" smooth="yes"/>
      <point x="167" y="452"/>
      <point x="219" y="393"/>
    </contour>
  </outline>
</glyph>
<glyph name="uni00B9" format="1">
  <advance width="698"/>
  <unicode hex="00B9"/>
  <outline>
    <contour>
      <point x="425" y="589" type="curve" smooth="yes"/>
      <point x="456" y="589"/>
      <point x="489" y="609"/>
      <point x="489" y="651" type="curve" smooth="yes"/>
      <point x="489" y="1334" type="line" smooth="yes"/>
      <point x="489" y="1380"/>
      <point x="461" y="1403"/>
      <point x="430" y="1403" type="curve" smooth="yes"/>
      <point x="418" y="1403"/>
      <point x="405" y="1400"/>
      <point x="395" y="1393" type="curve" smooth="yes"/>
      <point x="190" y="1267" type="line" smooth="yes"/>
      <point x="173" y="1256"/>
      <point x="166" y="1241"/>
      <point x="166" y="1227" type="curve" smooth="yes"/>
      <point x="166" y="1201"/>
      <point x="188" y="1176"/>
      <point x="215" y="1176" type="curve" smooth="yes"/>
      <point x="225" y="1176"/>
      <point x="233" y="1179"/>
      <point x="242" y="1184" type="curve" smooth="yes"/>
      <point x="362" y="1260" type="line"/>
      <point x="362" y="651" type="line" smooth="yes"/>
      <point x="362" y="609"/>
      <point x="392" y="589"/>
    </contour>
  </outline>
</glyph>
<glyph name="guillemotright" format="1">
  <advance width="1190"/>
  <unicode hex="00BB"/>
  <outline>
    <contour>
      <point x="277" y="71" type="curve" smooth="yes"/>
      <point x="312" y="71"/>
      <point x="343" y="93"/>
      <point x="372" y="143" type="curve" smooth="yes"/>
      <point x="596" y="538" type="line"/>
      <point x="372" y="932" type="line" smooth="yes"/>
      <point x="344" y="980"/>
      <point x="310" y="1004"/>
      <point x="275" y="1004" type="curve" smooth="yes"/>
      <point x="232" y="1004"/>
      <point x="195" y="973"/>
      <point x="195" y="930" type="curve" smooth="yes"/>
      <point x="195" y="915"/>
      <point x="201" y="901"/>
      <point x="208" y="887" type="curve" smooth="yes"/>
      <point x="369" y="538" type="line"/>
      <point x="208" y="188" type="line" smooth="yes"/>
      <point x="201" y="173"/>
      <point x="195" y="158"/>
      <point x="195" y="144" type="curve" smooth="yes"/>
      <point x="195" y="99"/>
      <point x="234" y="71"/>
    </contour>
    <contour>
      <point x="709" y="71" type="curve" smooth="yes"/>
      <point x="745" y="71"/>
      <point x="776" y="93"/>
      <point x="805" y="143" type="curve" smooth="yes"/>
      <point x="1029" y="538" type="line"/>
      <point x="805" y="932" type="line"/>
      <point x="776" y="980"/>
      <point x="744" y="1004"/>
      <point x="708" y="1004" type="curve" smooth="yes"/>
      <point x="665" y="1004"/>
      <point x="627" y="973"/>
      <point x="627" y="930" type="curve" smooth="yes"/>
      <point x="627" y="916"/>
      <point x="634" y="901"/>
      <point x="641" y="886" type="curve" smooth="yes"/>
      <point x="802" y="538" type="line"/>
      <point x="641" y="189" type="line" smooth="yes"/>
      <point x="634" y="174"/>
      <point x="628" y="158"/>
      <point x="628" y="145" type="curve" smooth="yes"/>
      <point x="628" y="100"/>
      <point x="666" y="71"/>
    </contour>
  </outline>
</glyph>
<glyph name="uni02C9" format="1">
  <advance width="569"/>
  <unicode hex="02C9"/>
  <outline>
    <contour>
      <point x="289" y="1040" type="move" name="_top"/>
    </contour>
    <contour>
      <point x="53" y="1292" type="curve" smooth="yes"/>
      <point x="521" y="1292" type="line" smooth="yes"/>
      <point x="570" y="1292"/>
      <point x="594" y="1328"/>
      <point x="594" y="1367" type="curve" smooth="yes"/>
      <point x="594" y="1405"/>
      <point x="570" y="1442"/>
      <point x="521" y="1442" type="curve" smooth="yes"/>
      <point x="53" y="1442" type="line" smooth="yes"/>
      <point x="3" y="1442"/>
      <point x="-22" y="1405"/>
      <point x="-22" y="1367" type="curve" smooth="yes"/>
      <point x="-22" y="1328"/>
      <point x="3" y="1292"/>
    </contour>
  </outline>
</glyph>
<glyph name="uni0312" format="1">
  <advance width="600"/>
  <unicode hex="0312"/>
  <outline>
    <contour>
      <point x="283" y="991" type="move" name="_top"/>
    </contour>
    <contour>
      <point x="213" y="1204" type="curve"/>
      <point x="345" y="1204" type="line"/>
      <point x="377" y="1205"/>
      <point x="410" y="1213"/>
      <point x="418" y="1260" type="curve" smooth="yes"/>
      <point x="502" y="1744" type="line" smooth="yes"/>
      <point x="502.516" y="1747.1"/>
      <point x="503.033" y="1751.4"/>
      <point x="503.033" y="1756.09" type="curve" smooth="yes"/>
      <point x="503.033" y="1769.56"/>
      <point x="498.77" y="1786.26"/>
      <point x="478" y="1787" type="curve" smooth="yes"/>
      <point x="404" y="1787" type="line" smooth="yes"/>
      <point x="402.896" y="1787.04"/>
      <point x="401.811" y="1787.06"/>
      <point x="400.744" y="1787.06" type="curve" smooth="yes"/>
      <point x="373.789" y="1787.06"/>
      <point x="358.581" y="1774.78"/>
      <point x="348" y="1744" type="curve" smooth="yes"/>
      <point x="179" y="1260" type="line" smooth="yes"/>
      <point x="177.512" y="1255.83"/>
      <point x="176.201" y="1249.45"/>
      <point x="176.201" y="1242.46" type="curve" smooth="yes"/>
      <point x="176.201" y="1225.97"/>
      <point x="183.501" y="1206.11"/>
    </contour>
  </outline>
</glyph>
<glyph name="commaaccent" format="1">
  <advance width="610"/>
  <unicode hex="0326"/>
  <outline>
    <contour>
      <point x="329" y="0" type="move" name="_bot"/>
    </contour>
    <contour>
      <point x="150" y="-626" type="curve"/>
      <point x="218" y="-626" type="line"/>
      <point x="247" y="-627"/>
      <point x="263" y="-615"/>
      <point x="274" y="-583" type="curve" smooth="yes"/>
      <point x="425" y="-160" type="line" smooth="yes"/>
      <point x="430" y="-146"/>
      <point x="433" y="-107"/>
      <point x="391" y="-104" type="curve"/>
      <point x="271" y="-104" type="line"/>
      <point x="239" y="-105"/>
      <point x="206" y="-113"/>
      <point x="198" y="-160" type="curve" smooth="yes"/>
      <point x="126" y="-583" type="line" smooth="yes"/>
      <point x="124" y="-595"/>
      <point x="122" y="-625"/>
    </contour>
  </outline>
</glyph>
<glyph name="quotesinglbase" format="1">
  <advance width="609"/>
  <unicode hex="201A"/>
  <outline>
    <contour>
      <point x="167" y="-308" type="curve" smooth="yes"/>
      <point x="241" y="-308" type="line" smooth="yes"/>
      <point x="271" y="-308"/>
      <point x="286" y="-297"/>
      <point x="297" y="-265" type="curve"/>
      <point x="469" y="177" type="line" smooth="yes"/>
      <point x="470.488" y="181.167"/>
      <point x="471.799" y="187.815"/>
      <point x="471.799" y="195.097" type="curve" smooth="yes"/>
      <point x="471.799" y="212.281"/>
      <point x="464.499" y="233"/>
      <point x="435" y="233" type="curve" smooth="yes"/>
      <point x="295" y="233" type="line" smooth="yes"/>
      <point x="263" y="233"/>
      <point x="230" y="224"/>
      <point x="222" y="177" type="curve" smooth="yes"/>
      <point x="143" y="-265" type="line" smooth="yes"/>
      <point x="142.484" y="-268.098"/>
      <point x="141.967" y="-272.397"/>
      <point x="141.967" y="-277.086" type="curve" smooth="yes"/>
      <point x="141.967" y="-290.559"/>
      <point x="146.23" y="-307.258"/>
    </contour>
  </outline>
</glyph>
<glyph name="quotedblleft" format="1">
  <advance width="1158"/>
  <unicode hex="201C"/>
  <outline>
    <contour>
      <point x="209" y="895" type="curve" smooth="yes"/>
      <point x="349" y="895" type="line"/>
      <point x="381" y="896"/>
      <point x="414" y="904"/>
      <point x="422" y="951" type="curve" smooth="yes"/>
      <point x="501" y="1393" type="line" smooth="yes"/>
      <point x="503" y="1405"/>
      <point x="505" y="1436"/>
      <point x="477" y="1436" type="curve" smooth="yes"/>
      <point x="403" y="1436" type="line" smooth="yes"/>
      <point x="374" y="1436"/>
      <point x="358" y="1425"/>
      <point x="347" y="1393" type="curve"/>
      <point x="175" y="951" type="line" smooth="yes"/>
      <point x="173.512" y="946.833"/>
      <point x="172.201" y="940.185"/>
      <point x="172.201" y="932.903" type="curve" smooth="yes"/>
      <point x="172.201" y="915.719"/>
      <point x="179.501" y="895"/>
    </contour>
    <contour>
      <point x="633" y="895" type="curve" smooth="yes"/>
      <point x="773" y="895" type="line"/>
      <point x="805" y="896"/>
      <point x="838" y="904"/>
      <point x="846" y="951" type="curve" smooth="yes"/>
      <point x="925" y="1393" type="line" smooth="yes"/>
      <point x="925.516" y="1396.1"/>
      <point x="926.033" y="1400.46"/>
      <point x="926.033" y="1405.23" type="curve" smooth="yes"/>
      <point x="926.033" y="1418.94"/>
      <point x="921.77" y="1436"/>
      <point x="901" y="1436" type="curve" smooth="yes"/>
      <point x="827" y="1436" type="line" smooth="yes"/>
      <point x="798" y="1436"/>
      <point x="782" y="1425"/>
      <point x="771" y="1393" type="curve"/>
      <point x="599" y="951" type="line" smooth="yes"/>
      <point x="597.512" y="946.833"/>
      <point x="596.201" y="940.185"/>
      <point x="596.201" y="932.903" type="curve" smooth="yes"/>
      <point x="596.201" y="915.719"/>
      <point x="603.501" y="895"/>
    </contour>
  </outline>
</glyph>
<glyph name="quotedblbase" format="1">
  <advance width="1158"/>
  <unicode hex="201E"/>
  <outline>
    <contour>
      <point x="245" y="-263" type="curve" smooth="yes"/>
      <point x="319" y="-263" type="line" smooth="yes"/>
      <point x="320.104" y="-263.038"/>
      <point x="321.188" y="-263.057"/>
      <point x="322.252" y="-263.057" type="curve" smooth="yes"/>
      <point x="349.138" y="-263.057"/>
      <point x="363.457" y="-250.782"/>
      <point x="375" y="-220" type="curve" smooth="yes"/>
      <point x="546" y="222" type="line" smooth="yes"/>
      <point x="547.8" y="226.2"/>
      <point x="549.24" y="232.65"/>
      <point x="549.24" y="239.703" type="curve" smooth="yes"/>
      <point x="549.24" y="256.16"/>
      <point x="541.4" y="275.9"/>
      <point x="512" y="278" type="curve"/>
      <point x="372" y="278" type="line"/>
      <point x="340" y="277"/>
      <point x="307" y="269"/>
      <point x="299" y="222" type="curve" smooth="yes"/>
      <point x="221" y="-220" type="line" smooth="yes"/>
      <point x="220.484" y="-223.098"/>
      <point x="219.967" y="-227.397"/>
      <point x="219.967" y="-232.086" type="curve" smooth="yes"/>
      <point x="219.967" y="-245.559"/>
      <point x="224.23" y="-262.258"/>
    </contour>
    <contour>
      <point x="664" y="-263" type="curve" smooth="yes"/>
      <point x="738" y="-263" type="line" smooth="yes"/>
      <point x="739.104" y="-263.038"/>
      <point x="740.189" y="-263.057"/>
      <point x="741.256" y="-263.057" type="curve" smooth="yes"/>
      <point x="768.211" y="-263.057"/>
      <point x="783.419" y="-250.782"/>
      <point x="794" y="-220" type="curve"/>
      <point x="966" y="222" type="line" smooth="yes"/>
      <point x="967.488" y="226.167"/>
      <point x="968.799" y="232.549"/>
      <point x="968.799" y="239.537" type="curve" smooth="yes"/>
      <point x="968.799" y="256.027"/>
      <point x="961.499" y="275.893"/>
      <point x="932" y="278" type="curve"/>
      <point x="792" y="278" type="line"/>
      <point x="760" y="277"/>
      <point x="727" y="269"/>
      <point x="719" y="222" type="curve" smooth="yes"/>
      <point x="640" y="-220" type="line" smooth="yes"/>
      <point x="639.484" y="-223.098"/>
      <point x="638.967" y="-227.397"/>
      <point x="638.967" y="-232.086" type="curve" smooth="yes"/>
      <point x="638.967" y="-245.559"/>
      <point x="643.23" y="-262.258"/>
    </contour>
  </outline>
</glyph>
<glyph name="integral" format="1">
  <advance width="782"/>
  <unicode hex="222B"/>
  <outline>
    <contour>
      <point x="177" y="-344" type="curve" smooth="yes"/>
      <point x="346" y="-344"/>
      <point x="501" y="-244"/>
      <point x="501" y="196" type="curve" smooth="yes"/>
      <point x="501" y="544"/>
      <point x="471" y="889"/>
      <point x="471" y="1216" type="curve" smooth="yes"/>
      <point x="471" y="1509"/>
      <point x="519" y="1628"/>
      <point x="646" y="1628" type="curve" smooth="yes"/>
      <point x="709" y="1628"/>
      <point x="745" y="1663"/>
      <point x="745" y="1700" type="curve" smooth="yes"/>
      <point x="745" y="1736"/>
      <point x="710" y="1773"/>
      <point x="630" y="1773" type="curve" smooth="yes"/>
      <point x="417" y="1773"/>
      <point x="288" y="1620"/>
      <point x="288" y="1236" type="curve" smooth="yes"/>
      <point x="288" y="903"/>
      <point x="321" y="549"/>
      <point x="321" y="198" type="curve" smooth="yes"/>
      <point x="321" y="-122"/>
      <point x="243" y="-189"/>
      <point x="159" y="-189" type="curve" smooth="yes"/>
      <point x="85" y="-189"/>
      <point x="51" y="-225"/>
      <point x="51" y="-263" type="curve" smooth="yes"/>
      <point x="51" y="-303"/>
      <point x="89" y="-344"/>
    </contour>
  </outline>
</glyph>
<glyph name="caron.alt" format="1">
  <advance width="624"/>
  <outline>
    <contour>
      <point x="-34" y="305" type="move" name="_caron.alt"/>
    </contour>
    <contour>
      <point x="265" y="300" type="curve"/>
      <point x="333" y="300" type="line"/>
      <point x="362" y="299"/>
      <point x="378" y="311"/>
      <point x="389" y="343" type="curve" smooth="yes"/>
      <point x="540" y="766" type="line" smooth="yes"/>
      <point x="545" y="780"/>
      <point x="548" y="819"/>
      <point x="506" y="822" type="curve"/>
      <point x="386" y="822" type="line"/>
      <point x="354" y="821"/>
      <point x="321" y="813"/>
      <point x="313" y="766" type="curve" smooth="yes"/>
      <point x="241" y="343" type="line" smooth="yes"/>
      <point x="239" y="331"/>
      <point x="237" y="301"/>
    </contour>
  </outline>
</glyph>
